# xmcd
#
# Track frame offsets: 
#        150
#        11123
#        29523
#        40629
#        58403
#        68021
#        88656
#        98851
#        118901
#        130742
#        144269
#        168022
#        173649
#
# Disc length: 2462 seconds
#
# Revision: 0
# Processed by: cddbd v1.5.1PL2 Copyright (c) Steve Scherf et al.
# Submitted via: ExactAudioCopy v0.95b3
#
DISCID=aa099c0d
DTITLE=Tuesdays (Build A Horse) - Build A Horse
DYEAR=2001
DGENRE=alt
TTITLE0=Where oh Where is John
TTITLE1=Lets Build a Horse
TTITLE2=Moonshine
TTITLE3=Don't Know Why
TTITLE4=If The phone Doesnt Ring
TTITLE5=Thats Alright
TTITLE6=Cant Take It With You
TTITLE7=Harriette Had Her Bad Day
TTITLE8=Battle Song
TTITLE9=Bangor Maine
TTITLE10=Tricked You
TTITLE11=_
TTITLE12=__
EXTD=
EXTT0=
EXTT1=
EXTT2=
EXTT3=
EXTT4=
EXTT5=
EXTT6=
EXTT7=
EXTT8=
EXTT9=
EXTT10=
EXTT11=
EXTT12=
PLAYORDER=
